<svg width="26" height="26" viewBox="0 0 26 26" fill="none" xmlns="http://www.w3.org/2000/svg">
<g clip-path="url(#clip0_399_1957)">
<path d="M1.25587 13.2134C1.20029 13.2134 1.15482 13.2575 1.14764 13.3184L0.89209 15.6535L1.14764 17.9366C1.15482 17.9975 1.20029 18.0419 1.25587 18.0419C1.31065 18.0419 1.35506 17.9983 1.36383 17.9369L1.65475 15.6532L1.36383 13.3182C1.35506 13.2562 1.31065 13.2134 1.25587 13.2134Z" fill="#C8D419"/>
<path d="M0.294639 14.1079C0.240657 14.1079 0.197578 14.1494 0.190398 14.2098L0 15.6534L0.190398 17.0726C0.197312 17.1327 0.240391 17.1742 0.294639 17.1742C0.347291 17.1742 0.390104 17.1327 0.398613 17.0732L0.623847 15.6534L0.398613 14.2084C0.390104 14.1494 0.347291 14.1079 0.294639 14.1079Z" fill="#C8D419"/>
<path d="M2.27738 12.7554C2.20877 12.7554 2.154 12.8091 2.14708 12.883L1.9043 15.6534L2.14708 18.3224C2.154 18.3966 2.20877 18.45 2.27738 18.45C2.34466 18.45 2.39944 18.3966 2.40742 18.3227L2.68291 15.6531L2.40742 12.8827C2.39944 12.8091 2.34466 12.7554 2.27738 12.7554Z" fill="#C8D419"/>
<path d="M3.30742 12.6577C3.22658 12.6577 3.1609 12.7221 3.15452 12.8077L2.92529 15.6544L3.15452 18.4077C3.1609 18.4928 3.22658 18.5574 3.30742 18.5574C3.38693 18.5574 3.45235 18.4928 3.45979 18.4077L3.72013 15.6544L3.45979 12.8072C3.45235 12.7221 3.38693 12.6577 3.30742 12.6577Z" fill="#C8D419"/>
<path d="M4.51971 13.0126C4.51333 12.9155 4.43781 12.8413 4.34527 12.8413C4.2514 12.8413 4.17641 12.9152 4.17056 13.0134L3.9541 15.6539L4.17056 18.4304C4.17641 18.528 4.25167 18.6022 4.34527 18.6022C4.43807 18.6022 4.51333 18.528 4.51971 18.4304L4.76516 15.6539L4.51971 13.0126Z" fill="#C8D419"/>
<path d="M5.39164 11.1646C5.28634 11.1646 5.20018 11.2502 5.19486 11.3595L4.9917 15.6554L5.19486 18.4316C5.20045 18.5396 5.2866 18.6255 5.39164 18.6255C5.49588 18.6255 5.58204 18.5398 5.58842 18.4308V18.4319L5.81818 15.6557L5.58842 11.3595C5.58177 11.2502 5.49562 11.1646 5.39164 11.1646Z" fill="#C8D419"/>
<path d="M6.43025 10.1753C6.31244 10.1753 6.21645 10.2705 6.21113 10.392C6.21113 10.3925 6.021 15.6705 6.021 15.6705L6.21139 18.4294C6.21671 18.5504 6.31244 18.6456 6.43025 18.6456C6.54725 18.6456 6.64405 18.5504 6.6491 18.4289V18.4305L6.86423 15.6705L6.6491 10.392C6.64405 10.2705 6.54725 10.1753 6.43025 10.1753Z" fill="#C8D419"/>
<path d="M7.50982 9.69824C7.37926 9.69824 7.27315 9.80355 7.26863 9.93757L7.0918 15.657L7.26863 18.3874C7.27342 18.5204 7.37926 18.6254 7.50982 18.6254C7.63959 18.6254 7.74569 18.5204 7.75101 18.3866V18.3882L7.95072 15.6572L7.75101 9.93757C7.74543 9.80355 7.63959 9.69824 7.50982 9.69824Z" fill="#C8D419"/>
<path d="M8.84462 9.74533C8.8401 9.59854 8.72443 9.4834 8.58163 9.4834C8.43777 9.4834 8.32209 9.59881 8.3181 9.74533L8.1543 15.657L8.31837 18.3704C8.32236 18.5156 8.43777 18.6305 8.58163 18.6305C8.72443 18.6305 8.84037 18.5156 8.84462 18.3696L9.02917 15.6578L8.84462 9.74533Z" fill="#C8D419"/>
<path d="M9.66147 9.61279C9.50458 9.61279 9.37933 9.73751 9.37561 9.8968L9.2251 15.6579L9.37614 18.3451C9.3796 18.5027 9.50458 18.628 9.66147 18.628C9.8173 18.628 9.94255 18.5025 9.9468 18.3435V18.3456L10.1165 15.6574L9.9468 9.896C9.94255 9.73698 9.8173 9.61279 9.66147 9.61279Z" fill="#C8D419"/>
<path d="M10.7496 9.80078C10.5805 9.80078 10.4449 9.9356 10.4417 10.1074L10.3042 15.6579L10.4417 18.3291C10.4449 18.4993 10.5805 18.6336 10.7496 18.6336C10.9185 18.6336 11.0538 18.4993 11.057 18.3272V18.3293L11.2113 15.6587L11.057 10.1077C11.0538 9.9356 10.9185 9.80078 10.7496 9.80078Z" fill="#C8D419"/>
<path d="M12.0287 8.78072C11.9766 8.74535 11.9136 8.72461 11.8463 8.72461C11.7809 8.72461 11.72 8.74455 11.6687 8.77806C11.5785 8.83683 11.5182 8.93814 11.5166 9.05355L11.5155 9.11578L11.3916 15.6569C11.3916 15.6606 11.5166 18.3118 11.5166 18.3118C11.5166 18.3161 11.5171 18.319 11.5174 18.323C11.5211 18.3969 11.549 18.465 11.594 18.519C11.6549 18.5915 11.7455 18.6383 11.8463 18.6383C11.9359 18.6383 12.0176 18.6014 12.0771 18.5418C12.137 18.4825 12.1747 18.4006 12.1763 18.3097L12.1902 18.0475L12.3154 15.6585L12.1766 9.05329C12.1745 8.93974 12.116 8.83975 12.0287 8.78072Z" fill="#C8D419"/>
<path d="M13.1174 8.15453C13.0653 8.12262 13.0036 8.104 12.9384 8.104C12.8544 8.104 12.777 8.13432 12.7161 8.18431C12.6379 8.24893 12.5874 8.34626 12.5858 8.45528L12.585 8.49145L12.4414 15.6596L12.5148 16.9844L12.5858 18.2741C12.5887 18.4648 12.7464 18.6227 12.9384 18.6227C13.1296 18.6227 13.2873 18.4648 13.29 18.2717V18.2744V18.2749L13.4468 15.6598L13.2905 8.45475C13.2886 8.32738 13.219 8.21596 13.1174 8.15453Z" fill="#C8D419"/>
<path d="M22.8021 12.249C22.3644 12.249 21.9458 12.3378 21.5656 12.4971C21.3106 9.61534 18.8939 7.35449 15.9459 7.35449C15.2242 7.35449 14.5214 7.49649 13.9002 7.73662C13.659 7.83022 13.5952 7.92595 13.5928 8.11263V18.2622C13.5952 18.4577 13.7467 18.6101 13.9379 18.6289C13.9462 18.63 22.8026 18.6289 22.8026 18.6289C24.5689 18.6289 26.0003 17.2132 26.0003 15.4467C26 13.6807 24.5686 12.249 22.8021 12.249Z" fill="#C8D419"/>
</g>
<defs>
<clipPath id="clip0_399_1957">
<rect width="26" height="26" fill="white"/>
</clipPath>
</defs>
</svg>
