<svg width="26" height="26" viewBox="0 0 26 26" fill="none" xmlns="http://www.w3.org/2000/svg">
<path d="M7.00927 3.80504C7.00927 4.19362 6.92889 4.57797 6.77322 4.9338C6.61754 5.28962 6.38995 5.60917 6.10485 5.87224C5.81974 6.13532 5.48332 6.33619 5.11685 6.46215C4.75038 6.58811 4.36185 6.63643 3.97581 6.60405H3.93935C3.55757 6.62382 3.17581 6.56482 2.81766 6.43071C2.45951 6.2966 2.1326 6.09022 1.85713 5.82434C1.58165 5.55845 1.36348 5.23871 1.21609 4.88489C1.06871 4.53107 0.995242 4.15068 1.00024 3.76724C1.00524 3.3838 1.08859 3.00547 1.24514 2.65563C1.4017 2.30579 1.62813 1.99189 1.91044 1.73332C2.19274 1.47475 2.52493 1.27701 2.88644 1.15233C3.24796 1.02766 3.63114 0.978692 4.01227 1.00846C4.39558 0.979551 4.78072 1.03046 5.14348 1.158C5.50624 1.28554 5.83878 1.48694 6.12023 1.74957C6.40168 2.01219 6.62594 2.33036 6.77894 2.68409C6.93193 3.03782 7.01035 3.41946 7.00927 3.80504ZM1.28993 8.81547H6.65196V24.9976H1.28993V8.81547ZM25.9976 15.7155V24.9976H20.6355V16.3421C20.6355 14.1648 19.8602 12.68 17.9132 12.68C17.3094 12.6854 16.7219 12.8772 16.2305 13.2292C15.7391 13.5812 15.3676 14.0764 15.1666 14.6476C15.0292 15.0705 14.9691 15.5149 14.9891 15.9593V25H9.62223C9.62223 25 9.69515 10.3296 9.62223 8.81303H14.994V11.1049L14.9551 11.161H14.9916V11.1C15.4772 10.2543 16.1846 9.55828 17.037 9.08759C17.8893 8.6169 18.854 8.38955 19.8261 8.43024C23.353 8.43024 25.9976 10.7441 25.9976 15.7155Z" fill="#C7D41A"/>
</svg>
