<svg width="184" height="63" viewBox="0 0 184 63" fill="none" xmlns="http://www.w3.org/2000/svg">
<path d="M21.2178 9.15828C21.2178 11.8926 23.075 13.551 25.5572 13.551C28.0394 13.551 29.9002 11.8962 29.9002 9.15828C29.9002 6.42038 28.043 4.76557 25.5572 4.76557C23.0714 4.76557 21.2178 6.42038 21.2178 9.15828ZM34.9179 9.15828C34.9179 14.6767 30.7773 18.3166 25.5572 18.3166C20.3371 18.3166 16.1965 14.6767 16.1965 9.15828C16.1965 3.63988 20.3371 0 25.5572 0C30.7773 0 34.9179 3.63988 34.9179 9.15828Z" fill="#C7D41A"/>
<path d="M46.0399 6.5731C46.0399 5.24499 45.0847 4.5916 43.7069 4.5916H41.7502V8.55461H43.7069C45.0882 8.55461 46.0399 7.90121 46.0399 6.5731ZM50.9546 6.5731C50.9546 10.11 48.8489 12.7698 43.8276 12.7698H41.7467V17.9402H36.9775V0.376436H43.8276C48.8453 0.376436 50.9546 3.03621 50.9546 6.5731Z" fill="white"/>
<path d="M64.3317 13.5759V17.9402H52.7657V0.376436H63.9553V4.74429H57.5313V6.82523H63.1776V10.9658H57.5313V13.5759H64.3317Z" fill="white"/>
<path d="M83.5822 17.9402H79.8677L71.5865 8.50845H71.5368V17.9402H66.7677V0.376436H70.4822L78.7633 9.8117H78.813V0.376436H83.5822V17.9402Z" fill="white"/>
<path d="M0 31.5195C0 25.6993 4.21516 22.3613 9.65899 22.3613C12.443 22.3613 14.6021 23.2135 16.1575 24.2931L13.6469 28.3839C12.443 27.5565 11.3386 27.0558 9.80812 27.0558C7.22293 27.0558 5.01415 28.6112 5.01415 31.5231C5.01415 34.435 7.22293 35.9904 9.80812 35.9904C11.3386 35.9904 12.443 35.4897 13.6469 34.6623L16.1575 38.7531C14.6021 39.8327 12.443 40.6849 9.65899 40.6849C4.21516 40.6849 0 37.3469 0 31.5266" fill="white"/>
<path d="M21.2284 31.5195C21.2284 34.2539 23.0856 35.9087 25.5678 35.9087C28.0501 35.9087 29.9073 34.2539 29.9073 31.5195C29.9073 28.7852 28.0501 27.1268 25.5678 27.1268C23.0856 27.1268 21.2284 28.7816 21.2284 31.5195ZM34.9285 31.5195C34.9285 37.0379 30.7879 40.6778 25.5678 40.6778C20.3477 40.6778 16.2072 37.0379 16.2072 31.5195C16.2072 26.0011 20.3477 22.3613 25.5678 22.3613C30.7879 22.3613 34.9285 26.0011 34.9285 31.5195Z" fill="#C7D41A"/>
<path d="M53.8026 40.3014H50.0882L41.807 30.8697H41.7573V40.3014H36.9882V22.7377H40.7026L48.9838 32.1729H49.0335V22.7377H53.8026V40.3014Z" fill="white"/>
<path d="M69.1611 27.1055H64.7719V40.3014H60.0028V27.1055H55.6101V22.7377H69.1611V27.1055Z" fill="white"/>
<path d="M75.7377 26.9528V30.717H77.8187C79.2746 30.717 80.1517 30.1133 80.1517 28.8101C80.1517 27.5068 79.2746 26.9528 77.8187 26.9528H75.7377ZM80.2547 40.3014L75.7377 33.778V40.3014H70.9722V22.7377H78.4756C83.1169 22.7377 85.0984 25.472 85.0984 28.5082C85.0984 30.8413 83.9195 32.9258 81.3343 33.778L86.2028 40.3014H80.2547Z" fill="white"/>
<path d="M98.4292 33.2525L96.6466 27.7554L94.839 33.2525H98.4257H98.4292ZM99.6366 37.0166H93.6388L92.5592 40.3049H87.2894L94.0898 22.7412H99.182L105.982 40.3049H100.713L99.633 37.0166H99.6366Z" fill="white"/>
<path d="M105.659 31.5195C105.659 25.6993 109.874 22.3613 115.318 22.3613C118.102 22.3613 120.261 23.2135 121.817 24.2931L119.31 28.3839C118.106 27.5565 117.002 27.0558 115.471 27.0558C112.886 27.0558 110.677 28.6112 110.677 31.5231C110.677 34.435 112.886 35.9904 115.471 35.9904C117.002 35.9904 118.106 35.4897 119.31 34.6623L121.817 38.7531C120.261 39.8327 118.102 40.6849 115.318 40.6849C109.874 40.6849 105.659 37.3469 105.659 31.5266" fill="white"/>
<path d="M136.586 27.1055H132.193V40.3014H127.424V27.1055H123.035V22.7377H136.586V27.1055Z" fill="white"/>
<path d="M143.159 22.7377H138.393V40.3014H143.159V22.7377Z" fill="white"/>
<path d="M163.034 40.3014H159.32L151.039 30.8697H150.989V40.3014H146.223V22.7377H149.934L158.215 32.1729H158.265V22.7377H163.034V40.3014Z" fill="white"/>
<path d="M183.187 31.7965C183.187 36.9421 180.225 40.6778 174.629 40.6778C169.032 40.6778 165.094 36.9385 165.094 31.4947C165.094 26.0508 168.606 22.3613 174.881 22.3613C177.715 22.3613 179.899 23.1638 181.908 24.6198L178.997 28.5331C177.693 27.4287 176.212 26.928 174.732 26.928C171.845 26.928 170.115 28.8101 170.115 31.5195C170.115 34.0799 171.671 36.1111 174.856 36.1111C177.114 36.1111 178.194 35.1061 178.393 33.9023H174.05V29.886H183.109C183.158 30.5643 183.183 31.2923 183.183 31.793" fill="white"/>
<path d="M12.0418 51.2601C12.0418 49.932 11.0865 49.2786 9.70869 49.2786H7.75204V53.2416H9.70869C11.0901 53.2416 12.0418 52.5882 12.0418 51.2601ZM16.96 51.2601C16.96 54.797 14.8507 57.4567 9.83298 57.4567H7.75204V62.6271H2.98291V45.0634H9.83298C14.8507 45.0634 16.96 47.7232 16.96 51.2601Z" fill="white"/>
<path d="M25.4934 50.0811L21.4061 62.6271H16.1362L22.933 45.0599H28.0288L34.8292 62.6271H29.5594L25.4934 50.0811Z" fill="white"/>
<path d="M40.7772 49.275V53.0392H42.8581C44.3141 53.0392 45.1912 52.4355 45.1912 51.1322C45.1912 49.829 44.3141 49.275 42.8581 49.275H40.7772ZM45.2942 62.6271L40.7772 56.1038V62.6271H36.0081V45.0634H43.5115C48.1528 45.0634 50.1343 47.7978 50.1343 50.8339C50.1343 53.167 48.9554 55.2515 46.3702 56.1038L51.2387 62.6271H45.2906H45.2942Z" fill="white"/>
<path d="M64.5944 49.4277H60.2017V62.6271H55.4362V49.4277H51.0435V45.0599H64.5944V49.4277Z" fill="white"/>
<path d="M83.2129 62.6271H79.502L71.2208 53.1919H71.1711V62.6271H66.402V45.0599H70.1164L78.3976 54.4951H78.4473V45.0599H83.2129V62.6271Z" fill="white"/>
<path d="M97.8469 58.2593V62.6271H86.2775V45.0599H97.4705V49.4277H91.0466V51.5087H96.6928V55.6492H91.0466V58.2593H97.8469Z" fill="white"/>
<path d="M105.049 49.275V53.0392H107.129C108.585 53.0392 109.463 52.4355 109.463 51.1322C109.463 49.829 108.585 49.275 107.129 49.275H105.049ZM109.566 62.6271L105.049 56.1038V62.6271H100.279V45.0634H107.783C112.424 45.0634 114.406 47.7978 114.406 50.8339C114.406 53.167 113.227 55.2515 110.642 56.1038L115.51 62.6271H109.562H109.566Z" fill="white"/>
<path d="M129.768 46.1643L127.712 50.4043C126.231 49.4242 124.551 48.998 123.422 48.998C122.669 48.998 122.342 49.2004 122.342 49.6514C122.342 49.9781 122.545 50.2267 123.269 50.6031L126.884 52.4604C128.741 53.4156 130.148 54.6691 130.148 57.4283C130.148 61.0398 127.736 63 123.248 63C120.638 63 118.205 62.3466 115.823 61.0185L118.006 56.4518C120.087 57.9326 121.795 58.6109 123.5 58.6109C124.427 58.6109 124.981 58.4084 124.981 57.8332C124.981 57.407 124.679 57.1798 124.129 56.9063L120.29 54.9745C118.259 53.9447 117.179 52.2153 117.179 50.0065C117.179 46.8709 119.363 44.687 123.777 44.687C125.609 44.687 127.516 45.0634 129.775 46.1678" fill="white"/>
<path d="M147.86 45.0599V62.6271H143.095V55.8019H137.097V62.6271H132.328V45.0599H137.097V51.4341H143.095V45.0599H147.86Z" fill="white"/>
<path d="M155.691 45.0599H150.925V62.6236H155.691V45.0599Z" fill="white"/>
<path d="M167.811 51.2601C167.811 49.932 166.859 49.2786 165.477 49.2786H163.521V53.2416H165.477C166.859 53.2416 167.811 52.5882 167.811 51.2601ZM172.729 51.2601C172.729 54.797 170.619 57.4567 165.602 57.4567H163.521V62.6271H158.752V45.0634H165.602C170.619 45.0634 172.729 47.7232 172.729 51.2601Z" fill="white"/>
</svg>
