<svg width="89" height="148" viewBox="0 0 89 148" fill="none" xmlns="http://www.w3.org/2000/svg">
<path d="M42.7601 20.855C42.7601 33.458 33.3079 41.71 21.455 41.71C9.60218 41.71 0.149902 33.458 0.149902 20.855C0.149902 8.25199 9.60218 0 21.455 0C33.3079 0 42.7601 8.25199 42.7601 20.855ZM11.5526 20.855C11.5526 27.0065 15.7537 30.7574 21.455 30.7574C27.1564 30.7574 31.3574 27.0065 31.3574 20.855C31.3574 14.7035 27.1564 10.9526 21.455 10.9526C15.7537 10.9526 11.5526 14.7035 11.5526 20.855Z" fill="#C7D317"/>
<path d="M42.7601 71.5669C42.7601 84.17 33.3079 92.4219 21.455 92.4219C9.60218 92.4219 0.149902 84.17 0.149902 71.5669C0.149902 58.9639 9.60218 50.7119 21.455 50.7119C33.3079 50.7119 42.7601 58.9639 42.7601 71.5669ZM11.5526 71.5669C11.5526 77.7184 15.7537 81.4693 21.455 81.4693C27.1564 81.4693 31.3574 77.7184 31.3574 71.5669C31.3574 65.4155 27.1564 61.6645 21.455 61.6645C15.7537 61.6645 11.5526 65.4155 11.5526 71.5669Z" fill="#C7D317"/>
<path d="M21.3051 113.727L12.0029 142.234H0L15.4537 102.324H27.0065L42.4602 142.234H30.4573L21.1551 113.727H21.3051Z" fill="white"/>
<rect x="45" y="146" width="44" height="2" fill="white"/>
</svg>
