<svg width="26" height="26" viewBox="0 0 26 26" fill="none" xmlns="http://www.w3.org/2000/svg">
<path d="M4.2251 6.06641C10.0354 5.10383 15.9646 5.10385 21.7749 6.06641C22.1375 6.16583 22.468 6.35817 22.7339 6.62402C22.9998 6.88991 23.1921 7.22038 23.2915 7.58301C24.0483 11.1544 24.0482 14.8447 23.2915 18.416C23.1921 18.7787 22.9998 19.1101 22.7339 19.376C22.468 19.6417 22.1374 19.8332 21.7749 19.9326C15.9646 20.8954 10.0354 20.8954 4.2251 19.9326C3.86258 19.8332 3.53196 19.6417 3.26611 19.376C3.00019 19.1101 2.80793 18.7787 2.7085 18.416C1.95179 14.8447 1.95173 11.1543 2.7085 7.58301C2.80794 7.22036 3.00021 6.88992 3.26611 6.62402C3.53203 6.35812 3.86243 6.16584 4.2251 6.06641ZM10.8335 16.25L16.2505 13L10.8335 9.75V16.25Z" fill="#C8D419"/>
</svg>
